<?xml version="1.0" encoding="UTF-8" standalone="no"?>
<!DOCTYPE svg PUBLIC "-//W3C//DTD SVG 1.1//EN"
 "http://www.w3.org/Graphics/SVG/1.1/DTD/svg11.dtd">
<!-- Generated by graphviz version 2.36.0 (20140111.2315)
 -->
<!-- Title: controllers_diagram Pages: 1 -->
<svg width="462pt" height="286pt"
 viewBox="0.00 0.00 462.00 286.00" xmlns="http://www.w3.org/2000/svg" xmlns:xlink="http://www.w3.org/1999/xlink">
<g id="graph0" class="graph" transform="scale(1 1) rotate(0) translate(4 282)">
<title>controllers_diagram</title>
<polygon fill="white" stroke="none" points="-4,4 -4,-282 458,-282 458,4 -4,4"/>
<!-- _diagram_info -->
<g id="node1" class="node"><title>_diagram_info</title>
<text text-anchor="start" x="248" y="-263.6" font-family="Times,serif" font-size="13.00">Controllers diagram</text>
<text text-anchor="start" x="248" y="-249.6" font-family="Times,serif" font-size="13.00">Date: Jun 19 2014 &#45; 11:50</text>
<text text-anchor="start" x="248" y="-235.6" font-family="Times,serif" font-size="13.00">Migration version: 20140413184642</text>
<text text-anchor="start" x="248" y="-221.6" font-family="Times,serif" font-size="13.00">Generated by RailRoady 1.1.1</text>
<text text-anchor="start" x="248" y="-207.6" font-family="Times,serif" font-size="13.00">http://railroady.prestonlee.com</text>
</g>
<!-- ApplicationController -->
<g id="node2" class="node"><title>ApplicationController</title>
<path fill="none" stroke="black" d="M12,-56.6258C12,-56.6258 124,-56.6258 124,-56.6258 130,-56.6258 136,-62.6258 136,-68.6258 136,-68.6258 136,-138.626 136,-138.626 136,-144.626 130,-150.626 124,-150.626 124,-150.626 12,-150.626 12,-150.626 6,-150.626 -1.42109e-14,-144.626 -1.42109e-14,-138.626 -1.42109e-14,-138.626 -1.42109e-14,-68.6258 -1.42109e-14,-68.6258 -1.42109e-14,-62.6258 6,-56.6258 12,-56.6258"/>
<text text-anchor="middle" x="68" y="-135.426" font-family="Times,serif" font-size="14.00">ApplicationController</text>
<polyline fill="none" stroke="black" points="-1.42109e-14,-127.626 136,-127.626 "/>
<polyline fill="none" stroke="black" points="-1.42109e-14,-103.626 136,-103.626 "/>
<polyline fill="none" stroke="black" points="-1.42109e-14,-79.6258 136,-79.6258 "/>
<text text-anchor="start" x="8" y="-64.4258" font-family="Times,serif" font-size="14.00">_layout</text>
</g>
<!-- NotesController -->
<g id="node3" class="node"><title>NotesController</title>
<path fill="none" stroke="black" d="M156.013,-0.5C156.013,-0.5 236.013,-0.5 236.013,-0.5 242.013,-0.5 248.013,-6.5 248.013,-12.5 248.013,-12.5 248.013,-156.5 248.013,-156.5 248.013,-162.5 242.013,-168.5 236.013,-168.5 236.013,-168.5 156.013,-168.5 156.013,-168.5 150.013,-168.5 144.013,-162.5 144.013,-156.5 144.013,-156.5 144.013,-12.5 144.013,-12.5 144.013,-6.5 150.013,-0.5 156.013,-0.5"/>
<text text-anchor="middle" x="196.013" y="-153.3" font-family="Times,serif" font-size="14.00">NotesController</text>
<polyline fill="none" stroke="black" points="144.013,-145.5 248.013,-145.5 "/>
<text text-anchor="start" x="152.013" y="-130.3" font-family="Times,serif" font-size="14.00">create</text>
<text text-anchor="start" x="152.013" y="-115.3" font-family="Times,serif" font-size="14.00">destroy</text>
<text text-anchor="start" x="152.013" y="-100.3" font-family="Times,serif" font-size="14.00">index</text>
<text text-anchor="start" x="152.013" y="-85.3" font-family="Times,serif" font-size="14.00">new</text>
<text text-anchor="start" x="152.013" y="-70.3" font-family="Times,serif" font-size="14.00">show</text>
<polyline fill="none" stroke="black" points="144.013,-62.5 248.013,-62.5 "/>
<polyline fill="none" stroke="black" points="144.013,-38.5 248.013,-38.5 "/>
<text text-anchor="start" x="152.013" y="-23.3" font-family="Times,serif" font-size="14.00">_layout</text>
<text text-anchor="start" x="152.013" y="-8.3" font-family="Times,serif" font-size="14.00">note_params</text>
</g>
<!-- ApplicationController&#45;&gt;NotesController -->
<g id="edge1" class="edge"><title>ApplicationController&#45;&gt;NotesController</title>
<path fill="none" stroke="black" d="M136.129,-93.4469C138.757,-93.0544 141.374,-92.6633 143.965,-92.2762"/>
</g>
</g>
</svg>
