<?xml version="1.0" encoding="UTF-8" standalone="no"?>
<!DOCTYPE svg PUBLIC "-//W3C//DTD SVG 1.1//EN"
 "http://www.w3.org/Graphics/SVG/1.1/DTD/svg11.dtd">
<!-- Generated by graphviz version 2.36.0 (20140111.2315)
 -->
<!-- Title: models_diagram Pages: 1 -->
<svg width="401pt" height="230pt"
 viewBox="0.00 0.00 401.00 230.00" xmlns="http://www.w3.org/2000/svg" xmlns:xlink="http://www.w3.org/1999/xlink">
<g id="graph0" class="graph" transform="scale(1 1) rotate(0) translate(4 226)">
<title>models_diagram</title>
<polygon fill="white" stroke="none" points="-4,4 -4,-226 397,-226 397,4 -4,4"/>
<!-- _diagram_info -->
<g id="node1" class="node"><title>_diagram_info</title>
<text text-anchor="start" x="7" y="-207.6" font-family="Times,serif" font-size="13.00">Models diagram</text>
<text text-anchor="start" x="7" y="-193.6" font-family="Times,serif" font-size="13.00">Date: Jun 19 2014 &#45; 11:50</text>
<text text-anchor="start" x="7" y="-179.6" font-family="Times,serif" font-size="13.00">Migration version: 20140413184642</text>
<text text-anchor="start" x="7" y="-165.6" font-family="Times,serif" font-size="13.00">Generated by RailRoady 1.1.1</text>
<text text-anchor="start" x="7" y="-151.6" font-family="Times,serif" font-size="13.00">http://railroady.prestonlee.com</text>
</g>
<!-- User -->
<g id="node2" class="node"><title>User</title>
<ellipse fill="none" stroke="black" cx="284" cy="-90" rx="26.949" ry="18"/>
<text text-anchor="middle" x="284" y="-86.3" font-family="Times,serif" font-size="14.00">User</text>
</g>
<!-- Note -->
<g id="node3" class="node"><title>Note</title>
<ellipse fill="none" stroke="black" cx="311" cy="-18" rx="27.4223" ry="18"/>
<text text-anchor="middle" x="311" y="-14.3" font-family="Times,serif" font-size="14.00">Note</text>
</g>
<!-- User&#45;&gt;Note -->
<g id="edge1" class="edge"><title>User&#45;&gt;Note</title>
<path fill="none" stroke="#f0b6f7" d="M293.343,-64.7779C295.747,-58.544 298.347,-51.8046 300.793,-45.4634"/>
<ellipse fill="none" stroke="#f0b6f7" cx="291.838" cy="-68.679" rx="4.00001" ry="4.00001"/>
<polygon fill="#f0b6f7" stroke="#f0b6f7" points="300.861,-45.2862 308.658,-37.5757 302.66,-40.6212 304.46,-35.9562 304.46,-35.9562 304.46,-35.9562 302.66,-40.6212 300.261,-34.3368 300.861,-45.2862 300.861,-45.2862"/>
</g>
<!-- ActiveRecord::Base -->
<g id="node4" class="node"><title>ActiveRecord::Base</title>
<ellipse fill="none" stroke="black" cx="312" cy="-183" rx="81.3646" ry="18"/>
<text text-anchor="middle" x="312" y="-179.3" font-family="Times,serif" font-size="14.00">ActiveRecord::Base</text>
</g>
<!-- ActiveRecord::Base&#45;&gt;User -->
<g id="edge2" class="edge"><title>ActiveRecord::Base&#45;&gt;User</title>
<path fill="none" stroke="black" d="M306.733,-164.884C301.696,-148.511 294.146,-123.975 289.148,-107.732"/>
</g>
<!-- ActiveRecord::Base&#45;&gt;Note -->
<g id="edge3" class="edge"><title>ActiveRecord::Base&#45;&gt;Note</title>
<path fill="none" stroke="black" d="M314.912,-164.842C318.204,-143.192 322.767,-104.818 320,-72 318.981,-59.9098 316.676,-46.4315 314.654,-36.0925"/>
</g>
</g>
</svg>
