<?xml version="1.0" encoding="UTF-8" standalone="no"?>
<!DOCTYPE svg PUBLIC "-//W3C//DTD SVG 1.1//EN"
 "http://www.w3.org/Graphics/SVG/1.1/DTD/svg11.dtd">
<!-- Generated by graphviz version 2.36.0 (20140111.2315)
 -->
<!-- Title: models_diagram Pages: 1 -->
<svg width="487pt" height="538pt"
 viewBox="0.00 0.00 487.00 538.00" xmlns="http://www.w3.org/2000/svg" xmlns:xlink="http://www.w3.org/1999/xlink">
<g id="graph0" class="graph" transform="scale(1 1) rotate(0) translate(4 534)">
<title>models_diagram</title>
<polygon fill="white" stroke="none" points="-4,4 -4,-534 483,-534 483,4 -4,4"/>
<!-- _diagram_info -->
<g id="node1" class="node"><title>_diagram_info</title>
<text text-anchor="start" x="8" y="-515.6" font-family="Times,serif" font-size="13.00">Models diagram</text>
<text text-anchor="start" x="8" y="-501.6" font-family="Times,serif" font-size="13.00">Date: Jun 19 2014 &#45; 12:15</text>
<text text-anchor="start" x="8" y="-487.6" font-family="Times,serif" font-size="13.00">Migration version: 20140619164108</text>
<text text-anchor="start" x="8" y="-473.6" font-family="Times,serif" font-size="13.00">Generated by RailRoady 1.1.1</text>
<text text-anchor="start" x="8" y="-459.6" font-family="Times,serif" font-size="13.00">http://railroady.prestonlee.com</text>
</g>
<!-- User -->
<g id="node2" class="node"><title>User</title>
<path fill="none" stroke="black" d="M225,-189C225,-189 401,-189 401,-189 407,-189 413,-195 413,-201 413,-201 413,-403 413,-403 413,-409 407,-415 401,-415 401,-415 225,-415 225,-415 219,-415 213,-409 213,-403 213,-403 213,-201 213,-201 213,-195 219,-189 225,-189"/>
<text text-anchor="middle" x="313" y="-399.8" font-family="Times,serif" font-size="14.00">User</text>
<polyline fill="none" stroke="black" points="213,-392 413,-392 "/>
<text text-anchor="start" x="221" y="-376.8" font-family="Times,serif" font-size="14.00">id :integer</text>
<text text-anchor="start" x="221" y="-361.8" font-family="Times,serif" font-size="14.00">email :string</text>
<text text-anchor="start" x="221" y="-346.8" font-family="Times,serif" font-size="14.00">encrypted_password :string</text>
<text text-anchor="start" x="221" y="-331.8" font-family="Times,serif" font-size="14.00">reset_password_token :string</text>
<text text-anchor="start" x="221" y="-316.8" font-family="Times,serif" font-size="14.00">reset_password_sent_at :datetime</text>
<text text-anchor="start" x="221" y="-301.8" font-family="Times,serif" font-size="14.00">remember_created_at :datetime</text>
<text text-anchor="start" x="221" y="-286.8" font-family="Times,serif" font-size="14.00">sign_in_count :integer</text>
<text text-anchor="start" x="221" y="-271.8" font-family="Times,serif" font-size="14.00">current_sign_in_at :datetime</text>
<text text-anchor="start" x="221" y="-256.8" font-family="Times,serif" font-size="14.00">last_sign_in_at :datetime</text>
<text text-anchor="start" x="221" y="-241.8" font-family="Times,serif" font-size="14.00">current_sign_in_ip :string</text>
<text text-anchor="start" x="221" y="-226.8" font-family="Times,serif" font-size="14.00">last_sign_in_ip :string</text>
<text text-anchor="start" x="221" y="-211.8" font-family="Times,serif" font-size="14.00">created_at :datetime</text>
<text text-anchor="start" x="221" y="-196.8" font-family="Times,serif" font-size="14.00">updated_at :datetime</text>
</g>
<!-- Note -->
<g id="node3" class="node"><title>Note</title>
<path fill="none" stroke="black" d="M158.5,-15.5C158.5,-15.5 265.5,-15.5 265.5,-15.5 271.5,-15.5 277.5,-21.5 277.5,-27.5 277.5,-27.5 277.5,-124.5 277.5,-124.5 277.5,-130.5 271.5,-136.5 265.5,-136.5 265.5,-136.5 158.5,-136.5 158.5,-136.5 152.5,-136.5 146.5,-130.5 146.5,-124.5 146.5,-124.5 146.5,-27.5 146.5,-27.5 146.5,-21.5 152.5,-15.5 158.5,-15.5"/>
<text text-anchor="middle" x="212" y="-121.3" font-family="Times,serif" font-size="14.00">Note</text>
<polyline fill="none" stroke="black" points="146.5,-113.5 277.5,-113.5 "/>
<text text-anchor="start" x="154.5" y="-98.3" font-family="Times,serif" font-size="14.00">id :integer</text>
<text text-anchor="start" x="154.5" y="-83.3" font-family="Times,serif" font-size="14.00">title :string</text>
<text text-anchor="start" x="154.5" y="-68.3" font-family="Times,serif" font-size="14.00">body :text</text>
<text text-anchor="start" x="154.5" y="-53.3" font-family="Times,serif" font-size="14.00">created_at :datetime</text>
<text text-anchor="start" x="154.5" y="-38.3" font-family="Times,serif" font-size="14.00">updated_at :datetime</text>
<text text-anchor="start" x="154.5" y="-23.3" font-family="Times,serif" font-size="14.00">user_id :integer</text>
</g>
<!-- User&#45;&gt;Note -->
<g id="edge2" class="edge"><title>User&#45;&gt;Note</title>
<path fill="none" stroke="#ce7131" d="M258.929,-181.079C253.488,-169.013 248.103,-157.071 243.028,-145.815"/>
<ellipse fill="none" stroke="#ce7131" cx="260.708" cy="-185.025" rx="4.00002" ry="4.00002"/>
<polygon fill="#ce7131" stroke="#ce7131" points="242.954,-145.651 242.946,-134.685 240.899,-141.093 238.844,-136.534 238.844,-136.534 238.844,-136.534 240.899,-141.093 234.741,-138.384 242.954,-145.651 242.954,-145.651"/>
</g>
<!-- Profile -->
<g id="node4" class="node"><title>Profile</title>
<path fill="none" stroke="black" d="M360.5,-0.5C360.5,-0.5 467.5,-0.5 467.5,-0.5 473.5,-0.5 479.5,-6.5 479.5,-12.5 479.5,-12.5 479.5,-139.5 479.5,-139.5 479.5,-145.5 473.5,-151.5 467.5,-151.5 467.5,-151.5 360.5,-151.5 360.5,-151.5 354.5,-151.5 348.5,-145.5 348.5,-139.5 348.5,-139.5 348.5,-12.5 348.5,-12.5 348.5,-6.5 354.5,-0.5 360.5,-0.5"/>
<text text-anchor="middle" x="414" y="-136.3" font-family="Times,serif" font-size="14.00">Profile</text>
<polyline fill="none" stroke="black" points="348.5,-128.5 479.5,-128.5 "/>
<text text-anchor="start" x="356.5" y="-113.3" font-family="Times,serif" font-size="14.00">id :integer</text>
<text text-anchor="start" x="356.5" y="-98.3" font-family="Times,serif" font-size="14.00">user_id :integer</text>
<text text-anchor="start" x="356.5" y="-83.3" font-family="Times,serif" font-size="14.00">name :string</text>
<text text-anchor="start" x="356.5" y="-68.3" font-family="Times,serif" font-size="14.00">location :string</text>
<text text-anchor="start" x="356.5" y="-53.3" font-family="Times,serif" font-size="14.00">web :string</text>
<text text-anchor="start" x="356.5" y="-38.3" font-family="Times,serif" font-size="14.00">bio :text</text>
<text text-anchor="start" x="356.5" y="-23.3" font-family="Times,serif" font-size="14.00">created_at :datetime</text>
<text text-anchor="start" x="356.5" y="-8.3" font-family="Times,serif" font-size="14.00">updated_at :datetime</text>
</g>
<!-- User&#45;&gt;Profile -->
<g id="edge1" class="edge"><title>User&#45;&gt;Profile</title>
<path fill="none" stroke="#081a91" d="M366.962,-181.322C370.3,-173.919 373.618,-166.561 376.856,-159.378"/>
<ellipse fill="none" stroke="#081a91" cx="365.292" cy="-185.025" rx="4.00002" ry="4.00002"/>
<ellipse fill="#081a91" stroke="#081a91" cx="378.693" cy="-155.305" rx="4.00002" ry="4.00002"/>
</g>
<!-- ActiveRecord::Base -->
<g id="node5" class="node"><title>ActiveRecord::Base</title>
<ellipse fill="none" stroke="black" cx="313" cy="-491" rx="81.3646" ry="18"/>
<text text-anchor="middle" x="313" y="-487.3" font-family="Times,serif" font-size="14.00">ActiveRecord::Base</text>
</g>
<!-- ActiveRecord::Base&#45;&gt;User -->
<g id="edge3" class="edge"><title>ActiveRecord::Base&#45;&gt;User</title>
<path fill="none" stroke="black" d="M313,-472.743C313,-458.728 313,-437.642 313,-415.051"/>
</g>
<!-- ActiveRecord::Base&#45;&gt;Note -->
<g id="edge4" class="edge"><title>ActiveRecord::Base&#45;&gt;Note</title>
<path fill="none" stroke="black" d="M274.292,-475.105C249.296,-463.216 218.776,-443.892 204,-416 157.286,-327.824 175.939,-207.799 193.877,-136.755"/>
</g>
<!-- ActiveRecord::Base&#45;&gt;Profile -->
<g id="edge5" class="edge"><title>ActiveRecord::Base&#45;&gt;Profile</title>
<path fill="none" stroke="black" d="M351.708,-475.105C376.704,-463.216 407.224,-443.892 422,-416 465.613,-333.676 452.249,-223.591 435.685,-151.524"/>
</g>
</g>
</svg>
