<?xml version="1.0" encoding="UTF-8" standalone="no"?>
<!DOCTYPE svg PUBLIC "-//W3C//DTD SVG 1.1//EN"
 "http://www.w3.org/Graphics/SVG/1.1/DTD/svg11.dtd">
<!-- Generated by graphviz version 2.36.0 (20140111.2315)
 -->
<!-- Title: models_diagram Pages: 1 -->
<svg width="401pt" height="508pt"
 viewBox="0.00 0.00 401.00 508.00" xmlns="http://www.w3.org/2000/svg" xmlns:xlink="http://www.w3.org/1999/xlink">
<g id="graph0" class="graph" transform="scale(1 1) rotate(0) translate(4 504)">
<title>models_diagram</title>
<polygon fill="white" stroke="none" points="-4,4 -4,-504 397,-504 397,4 -4,4"/>
<!-- _diagram_info -->
<g id="node1" class="node"><title>_diagram_info</title>
<text text-anchor="start" x="7" y="-485.6" font-family="Times,serif" font-size="13.00">Models diagram</text>
<text text-anchor="start" x="7" y="-471.6" font-family="Times,serif" font-size="13.00">Date: Jun 19 2014 &#45; 11:50</text>
<text text-anchor="start" x="7" y="-457.6" font-family="Times,serif" font-size="13.00">Migration version: 20140413184642</text>
<text text-anchor="start" x="7" y="-443.6" font-family="Times,serif" font-size="13.00">Generated by RailRoady 1.1.1</text>
<text text-anchor="start" x="7" y="-429.6" font-family="Times,serif" font-size="13.00">http://railroady.prestonlee.com</text>
</g>
<!-- User -->
<g id="node2" class="node"><title>User</title>
<path fill="none" stroke="black" d="M160,-159C160,-159 336,-159 336,-159 342,-159 348,-165 348,-171 348,-171 348,-373 348,-373 348,-379 342,-385 336,-385 336,-385 160,-385 160,-385 154,-385 148,-379 148,-373 148,-373 148,-171 148,-171 148,-165 154,-159 160,-159"/>
<text text-anchor="middle" x="248" y="-369.8" font-family="Times,serif" font-size="14.00">User</text>
<polyline fill="none" stroke="black" points="148,-362 348,-362 "/>
<text text-anchor="start" x="156" y="-346.8" font-family="Times,serif" font-size="14.00">id :integer</text>
<text text-anchor="start" x="156" y="-331.8" font-family="Times,serif" font-size="14.00">email :string</text>
<text text-anchor="start" x="156" y="-316.8" font-family="Times,serif" font-size="14.00">encrypted_password :string</text>
<text text-anchor="start" x="156" y="-301.8" font-family="Times,serif" font-size="14.00">reset_password_token :string</text>
<text text-anchor="start" x="156" y="-286.8" font-family="Times,serif" font-size="14.00">reset_password_sent_at :datetime</text>
<text text-anchor="start" x="156" y="-271.8" font-family="Times,serif" font-size="14.00">remember_created_at :datetime</text>
<text text-anchor="start" x="156" y="-256.8" font-family="Times,serif" font-size="14.00">sign_in_count :integer</text>
<text text-anchor="start" x="156" y="-241.8" font-family="Times,serif" font-size="14.00">current_sign_in_at :datetime</text>
<text text-anchor="start" x="156" y="-226.8" font-family="Times,serif" font-size="14.00">last_sign_in_at :datetime</text>
<text text-anchor="start" x="156" y="-211.8" font-family="Times,serif" font-size="14.00">current_sign_in_ip :string</text>
<text text-anchor="start" x="156" y="-196.8" font-family="Times,serif" font-size="14.00">last_sign_in_ip :string</text>
<text text-anchor="start" x="156" y="-181.8" font-family="Times,serif" font-size="14.00">created_at :datetime</text>
<text text-anchor="start" x="156" y="-166.8" font-family="Times,serif" font-size="14.00">updated_at :datetime</text>
</g>
<!-- Note -->
<g id="node3" class="node"><title>Note</title>
<path fill="none" stroke="black" d="M258.5,-0.5C258.5,-0.5 365.5,-0.5 365.5,-0.5 371.5,-0.5 377.5,-6.5 377.5,-12.5 377.5,-12.5 377.5,-109.5 377.5,-109.5 377.5,-115.5 371.5,-121.5 365.5,-121.5 365.5,-121.5 258.5,-121.5 258.5,-121.5 252.5,-121.5 246.5,-115.5 246.5,-109.5 246.5,-109.5 246.5,-12.5 246.5,-12.5 246.5,-6.5 252.5,-0.5 258.5,-0.5"/>
<text text-anchor="middle" x="312" y="-106.3" font-family="Times,serif" font-size="14.00">Note</text>
<polyline fill="none" stroke="black" points="246.5,-98.5 377.5,-98.5 "/>
<text text-anchor="start" x="254.5" y="-83.3" font-family="Times,serif" font-size="14.00">id :integer</text>
<text text-anchor="start" x="254.5" y="-68.3" font-family="Times,serif" font-size="14.00">title :string</text>
<text text-anchor="start" x="254.5" y="-53.3" font-family="Times,serif" font-size="14.00">body :text</text>
<text text-anchor="start" x="254.5" y="-38.3" font-family="Times,serif" font-size="14.00">created_at :datetime</text>
<text text-anchor="start" x="254.5" y="-23.3" font-family="Times,serif" font-size="14.00">updated_at :datetime</text>
<text text-anchor="start" x="254.5" y="-8.3" font-family="Times,serif" font-size="14.00">user_id :integer</text>
</g>
<!-- User&#45;&gt;Note -->
<g id="edge1" class="edge"><title>User&#45;&gt;Note</title>
<path fill="none" stroke="#55cd8e" d="M284.719,-151.088C286.751,-144.453 288.757,-137.903 290.703,-131.547"/>
<ellipse fill="none" stroke="#55cd8e" cx="283.513" cy="-155.028" rx="4.00001" ry="4.00001"/>
<polygon fill="#55cd8e" stroke="#55cd8e" points="290.78,-131.298 298.01,-123.053 292.244,-126.517 293.708,-121.736 293.708,-121.736 293.708,-121.736 292.244,-126.517 289.405,-120.418 290.78,-131.298 290.78,-131.298"/>
</g>
<!-- ActiveRecord::Base -->
<g id="node4" class="node"><title>ActiveRecord::Base</title>
<ellipse fill="none" stroke="black" cx="312" cy="-461" rx="81.3646" ry="18"/>
<text text-anchor="middle" x="312" y="-457.3" font-family="Times,serif" font-size="14.00">ActiveRecord::Base</text>
</g>
<!-- ActiveRecord::Base&#45;&gt;User -->
<g id="edge2" class="edge"><title>ActiveRecord::Base&#45;&gt;User</title>
<path fill="none" stroke="black" d="M306.094,-442.743C301.297,-428.728 294.081,-407.642 286.349,-385.051"/>
</g>
<!-- ActiveRecord::Base&#45;&gt;Note -->
<g id="edge3" class="edge"><title>ActiveRecord::Base&#45;&gt;Note</title>
<path fill="none" stroke="black" d="M326.064,-443.043C336.894,-428.813 350.996,-407.428 357,-386 384.339,-288.424 379.032,-256.909 357,-158 354.279,-145.783 349.828,-133.282 344.759,-121.512"/>
</g>
</g>
</svg>
