<?xml version="1.0" encoding="UTF-8" standalone="no"?>
<!DOCTYPE svg PUBLIC "-//W3C//DTD SVG 1.1//EN"
 "http://www.w3.org/Graphics/SVG/1.1/DTD/svg11.dtd">
<!-- Generated by graphviz version 2.36.0 (20140111.2315)
 -->
<!-- Title: models_diagram Pages: 1 -->
<svg width="402pt" height="230pt"
 viewBox="0.00 0.00 402.00 230.00" xmlns="http://www.w3.org/2000/svg" xmlns:xlink="http://www.w3.org/1999/xlink">
<g id="graph0" class="graph" transform="scale(1 1) rotate(0) translate(4 226)">
<title>models_diagram</title>
<polygon fill="white" stroke="none" points="-4,4 -4,-226 398,-226 398,4 -4,4"/>
<!-- _diagram_info -->
<g id="node1" class="node"><title>_diagram_info</title>
<text text-anchor="start" x="8" y="-207.6" font-family="Times,serif" font-size="13.00">Models diagram</text>
<text text-anchor="start" x="8" y="-193.6" font-family="Times,serif" font-size="13.00">Date: Jun 19 2014 &#45; 12:15</text>
<text text-anchor="start" x="8" y="-179.6" font-family="Times,serif" font-size="13.00">Migration version: 20140619164108</text>
<text text-anchor="start" x="8" y="-165.6" font-family="Times,serif" font-size="13.00">Generated by RailRoady 1.1.1</text>
<text text-anchor="start" x="8" y="-151.6" font-family="Times,serif" font-size="13.00">http://railroady.prestonlee.com</text>
</g>
<!-- User -->
<g id="node2" class="node"><title>User</title>
<ellipse fill="none" stroke="black" cx="313" cy="-90" rx="26.949" ry="18"/>
<text text-anchor="middle" x="313" y="-86.3" font-family="Times,serif" font-size="14.00">User</text>
</g>
<!-- Note -->
<g id="node3" class="node"><title>Note</title>
<ellipse fill="none" stroke="black" cx="265" cy="-18" rx="27.4223" ry="18"/>
<text text-anchor="middle" x="265" y="-14.3" font-family="Times,serif" font-size="14.00">Note</text>
</g>
<!-- User&#45;&gt;Note -->
<g id="edge2" class="edge"><title>User&#45;&gt;Note</title>
<path fill="none" stroke="#e9ccc8" d="M297.44,-66.3083C292.372,-58.9172 286.728,-50.687 281.588,-43.1904"/>
<ellipse fill="none" stroke="#e9ccc8" cx="299.846" cy="-69.817" rx="4.00002" ry="4.00002"/>
<polygon fill="#e9ccc8" stroke="#e9ccc8" points="281.504,-43.0685 279.56,-32.2763 278.677,-38.9449 275.849,-34.8212 275.849,-34.8212 275.849,-34.8212 278.677,-38.9449 272.138,-37.3661 281.504,-43.0685 281.504,-43.0685"/>
</g>
<!-- Profile -->
<g id="node4" class="node"><title>Profile</title>
<ellipse fill="none" stroke="black" cx="360" cy="-18" rx="34.1708" ry="18"/>
<text text-anchor="middle" x="360" y="-14.3" font-family="Times,serif" font-size="14.00">Profile</text>
</g>
<!-- User&#45;&gt;Profile -->
<g id="edge1" class="edge"><title>User&#45;&gt;Profile</title>
<path fill="none" stroke="#94f045" d="M328.169,-66.4085C333.375,-58.6543 339.208,-49.9667 344.445,-42.1675"/>
<ellipse fill="none" stroke="#94f045" cx="325.895" cy="-69.795" rx="4.00002" ry="4.00002"/>
<ellipse fill="#94f045" stroke="#94f045" cx="346.821" cy="-38.6279" rx="4.00002" ry="4.00002"/>
</g>
<!-- ActiveRecord::Base -->
<g id="node5" class="node"><title>ActiveRecord::Base</title>
<ellipse fill="none" stroke="black" cx="313" cy="-183" rx="81.3646" ry="18"/>
<text text-anchor="middle" x="313" y="-179.3" font-family="Times,serif" font-size="14.00">ActiveRecord::Base</text>
</g>
<!-- ActiveRecord::Base&#45;&gt;User -->
<g id="edge3" class="edge"><title>ActiveRecord::Base&#45;&gt;User</title>
<path fill="none" stroke="black" d="M313,-164.884C313,-148.614 313,-124.284 313,-108.04"/>
</g>
<!-- ActiveRecord::Base&#45;&gt;Note -->
<g id="edge4" class="edge"><title>ActiveRecord::Base&#45;&gt;Note</title>
<path fill="none" stroke="black" d="M302.783,-164.997C294.492,-150.394 283.198,-128.514 277,-108 269.65,-83.6724 266.795,-54.2429 265.69,-36.0711"/>
</g>
<!-- ActiveRecord::Base&#45;&gt;Profile -->
<g id="edge5" class="edge"><title>ActiveRecord::Base&#45;&gt;Profile</title>
<path fill="none" stroke="black" d="M323.276,-165.014C331.602,-150.423 342.916,-128.548 349,-108 356.205,-83.6669 358.694,-54.2389 359.552,-36.069"/>
</g>
</g>
</svg>
